#!OML:ASF E:\Style6\Style6.ASF
:FULLY-SPECIFIED
:DEGREES
3368
root -0.227899 17.2233 1.20914 12.6747 -11.672 -0.003999
lowerback 4.31247 -1.67281 5.65051
upperback 0.808258 -1.91198 3.71085
thorax -1.64315 -0.978613 0.767395
lowerneck 12.1262 3.0654 2.79114
upperneck 4.41044 4.38254 -8.72382
head -0.416841 2.35059 -3.50772
rclavicle -8.34896e-015 -6.36111e-015
rhumerus -65.4908 15.9095 -86.1671
rradius 122.054
rwrist -4.18859
rhand 34.5698 0.212239
rfingers 7.12502
rthumb 57.7618 -15.721
lclavicle -8.34896e-015 -6.36111e-015
lhumerus -77.3469 -33.2886 98.8548
lradius 119.009
lwrist 41.2499
lhand 2.15214 38.5181
lfingers 7.12502
lthumb 27.6501 66.506
rfemur -34.5889 -5.43176 20.9901
rtibia 45.9835
rfoot -15.8118 3.84516
rtoes -6.1056
lfemur -27.0455 15.0994 -18.5572
ltibia 43.2406
lfoot -19.7938 6.23233
ltoes -23.5231
3369
root -0.234035 17.2154 1.19523 12.509 -11.757 -0.0316704
lowerback 4.34596 -1.57296 5.60642
upperback 1.26053 -1.80866 3.62364
thorax -1.19312 -0.91389 0.687489
lowerneck 12.9079 2.90944 2.79182
upperneck 4.67745 4.18716 -8.63233
head -0.478339 2.26158 -3.48778
rclavicle -3.18055e-015 -2.54444e-014
rhumerus -64.7045 15.4891 -85.8036
rradius 122.068
rwrist -4.08414
rhand 34.7133 0.11422
rfingers 7.12502
rthumb 57.8871 -15.708
lclavicle -3.18055e-015 -2.54444e-014
lhumerus -75.7439 -32.3475 97.4366
lradius 119.023
lwrist 40.2312
lhand 3.09147 38.4319
lfingers 7.12502
lthumb 28.548 66.2725
rfemur -34.5479 -5.26694 21.0096
rtibia 46.1582
rfoot -15.8853 3.69688
rtoes -7.01598
lfemur -26.9728 15.2352 -18.472
ltibia 43.4063
lfoot -19.835 6.19928
ltoes -23.4502
3370
root -0.240648 17.2071 1.18017 12.3924 -11.8012 -0.0142527
lowerback 4.30765 -1.50106 5.54404
upperback 1.72206 -1.74942 3.53536
thorax -0.694382 -0.870091 0.618294
lowerneck 13.8507 2.76969 2.6306
upperneck 4.60911 3.96957 -8.50052
head -0.681764 2.16827 -3.43222
rclavicle 5.1684e-014 -3.97569e-014
rhumerus -63.893 15.0997 -85.4655
rradius 122.028
rwrist -3.8856
rhand 34.7292 0.188245
rfingers 7.12502
rthumb 57.901 -15.6217
lclavicle 5.1684e-014 -3.97569e-014
lhumerus -74.1741 -31.2225 96.0105
lradius 119.135
lwrist 39.197
lhand 4.15731 38.3705
lfingers 7.12502
lthumb 29.5659 66.0355
rfemur -34.5872 -5.20563 21.014
rtibia 46.3838
rfoot -15.9694 3.58164
rtoes -7.61183
lfemur -27.0086 15.3269 -18.4493
ltibia 43.6047
lfoot -19.8673 6.15346
ltoes -23.3227
3371
root -0.246603 17.1969 1.16311 12.3306 -11.8381 0.056761
lowerback 4.29661 -1.50647 5.37931
upperback 2.17633 -1.79304 3.46143
thorax -0.21834 -0.878958 0.627849
lowerneck 14.5376 2.75647 2.33022
upperneck 4.53921 3.89648 -8.31809
head -0.834568 2.13806 -3.33083
rclavicle -3.22031e-014 4.6118e-014
rhumerus -62.906 14.9595 -85.1504
rradius 121.841
rwrist -3.70993
rhand 34.7265 0.429631
rfingers 7.12502
rthumb 57.8987 -15.3823
lclavicle -3.22031e-014 4.6118e-014
lhumerus -72.5968 -29.7634 94.4812
lradius 119.237
lwrist 38.1333
lhand 5.6016 38.1137
lfingers 7.12502
lthumb 30.9436 65.5259
rfemur -34.7276 -5.19398 20.9757
rtibia 46.6269
rfoot -16.0222 3.42647
rtoes -8.78865
lfemur -27.1453 15.4124 -18.5068
ltibia 43.8522
lfoot -19.9576 6.07435
ltoes -23.0041
3372
root -0.250508 17.1834 1.14294 12.2547 -11.9283 0.0770745
lowerback 4.40952 -1.49787 5.22374
upperback 2.65869 -1.80843 3.40282
thorax 0.218659 -0.875274 0.650305
lowerneck 14.85 2.77071 2.00404
upperneck 4.54258 3.86028 -8.10038
head -0.896685 2.11597 -3.20154
rclavicle 3.57812e-015 1.59028e-014
rhumerus -61.7698 14.8589 -84.7414
rradius 121.536
rwrist -3.53253
rhand 34.8138 0.757032
rfingers 7.12502
rthumb 57.9749 -14.9869
lclavicle 3.57812e-015 1.59028e-014
lhumerus -71.0011 -28.1522 93.0352
lradius 119.216
lwrist 36.8623
lhand 6.93865 37.7976
lfingers 7.12502
lthumb 32.2173 64.9597
rfemur -34.8802 -5.10272 20.9595
rtibia 46.8809
rfoot -16.0113 3.60866
rtoes -7.56379
lfemur -27.2775 15.5242 -18.516
ltibia 44.1385
lfoot -20.0293 6.07119
ltoes -23.4213
3373
root -0.252227 17.1688 1.1215 12.1785 -12.0162 -0.0176737
lowerback 4.52484 -1.44293 5.22766
upperback 3.20933 -1.76048 3.35599
thorax 0.723248 -0.836993 0.593423
lowerneck 15.0712 2.69277 1.76659
upperneck 4.30221 3.70303 -7.94588
head -1.0287 2.04006 -3.10763
rclavicle 1.63003e-014 -4.77083e-015
rhumerus -60.6778 14.5495 -84.2166
rradius 121.369
rwrist -3.4147
rhand 35.2908 0.946848
rfingers 7.12502
rthumb 58.3902 -14.4192
lclavicle 1.63003e-014 -4.77083e-015
lhumerus -69.3977 -26.5939 91.7709
lradius 119.164
lwrist 35.4497
lhand 8.03275 37.2894
lfingers 7.12502
lthumb 33.2582 64.2348
rfemur -35.0181 -4.99365 21.0639
rtibia 47.1456
rfoot -16.0027 3.78983
rtoes -6.3276
lfemur -27.4082 15.6195 -18.3888
ltibia 44.4572
lfoot -20.1393 6.02337
ltoes -23.2792
3374
root -0.252407 17.1533 1.09786 12.1707 -12.0661 -0.101503
lowerback 4.50656 -1.39319 5.23573
upperback 3.80147 -1.73282 3.32221
thorax 1.34629 -0.806224 0.545721
lowerneck 15.2599 2.55477 1.70193
upperneck 3.84595 3.48042 -8.02905
head -1.22607 1.94412 -3.12843
rclavicle -1.19271e-014 -1.59028e-014
rhumerus -59.6947 14.2356 -83.6833
rradius 121.335
rwrist -3.30878
rhand 35.7789 1.26235
rfingers 7.12502
rthumb 58.8137 -13.7058
lclavicle -1.19271e-014 -1.59028e-014
lhumerus -67.8192 -24.969 90.6245
lradius 119.158
lwrist 33.9389
lhand 8.97831 36.7307
lfingers 7.12502
lthumb 34.1567 63.4795
rfemur -35.2456 -4.94042 21.1752
rtibia 47.4505
rfoot -16.0538 3.78659
rtoes -6.52812
lfemur -27.6428 15.6815 -18.2999
ltibia 44.7853
lfoot -20.2347 6.02033
ltoes -22.9505
3375
root -0.252813 17.1372 1.0714 12.155 -12.0708 -0.0818317
lowerback 4.50518 -1.35042 5.14723
upperback 4.33689 -1.7117 3.25867
thorax 1.90357 -0.782118 0.523424
lowerneck 15.6007 2.39567 1.7494
upperneck 3.27001 3.23772 -8.18834
head -1.49101 1.84744 -3.20278
rclavicle 3.85642e-014 1.90833e-014
rhumerus -58.9461 13.9331 -83.2599
rradius 121.329
rwrist -3.23555
rhand 36.0603 1.55086
rfingers 7.12502
rthumb 59.057 -13.1827
lclavicle 3.85642e-014 1.90833e-014
lhumerus -66.4177 -23.2914 89.5582
lradius 119.261
lwrist 32.5366
lhand 9.61057 36.5463
lfingers 7.12502
lthumb 34.7569 63.1588
rfemur -35.508 -4.99504 21.1946
rtibia 47.7727
rfoot -16.1035 3.84965
rtoes -6.64665
lfemur -27.9125 15.7068 -18.3267
ltibia 45.1123
lfoot -20.2918 6.08474
ltoes -23.0321
3376
root -0.252526 17.1195 1.0453 12.0311 -12.0997 0.0899752
lowerback 4.62624 -1.29432 4.9439
upperback 4.80402 -1.66 3.12443
thorax 2.32362 -0.74832 0.495378
lowerneck 16.1664 2.24305 1.77789
upperneck 2.50956 2.98831 -8.24316
head -1.86269 1.75282 -3.24825
rclavicle -1.86858e-014 3.33958e-014
rhumerus -58.3842 13.6055 -82.9504
rradius 121.254
rwrist -3.18417
rhand 36.4532 1.75492
rfingers 7.12502
rthumb 59.3958 -12.6444
lclavicle -1.86858e-014 3.33958e-014
lhumerus -65.2563 -21.6256 88.6277
lradius 119.437
lwrist 31.1853
lhand 10.1718 36.622
lfingers 7.12502
lthumb 35.2893 63.11
rfemur -35.7074 -5.10047 21.0438
rtibia 48.1147
rfoot -16.123 3.94127
rtoes -6.48489
lfemur -28.0695 15.7295 -18.5007
ltibia 45.4376
lfoot -20.3684 6.18252
ltoes -23.3257
3377
root -0.250068 17.106 1.01764 11.8128 -12.01 0.0814903
lowerback 4.88971 -1.30939 4.91251
upperback 5.31726 -1.69094 3.05922
thorax 2.70992 -0.752948 0.448744
lowerneck 16.7073 2.13345 1.74503
upperneck 1.5894 2.7761 -8.2589
head -2.28804 1.67788 -3.27457
rclavicle 5.20816e-014 -3.65764e-014
rhumerus -57.7388 13.41 -82.6613
rradius 121.124
rwrist -3.18545
rhand 36.9151 1.89971
rfingers 7.12502
rthumb 59.7925 -12.0966
lclavicle 5.20816e-014 -3.65764e-014
lhumerus -64.2078 -19.8544 87.8451
lradius 119.566
lwrist 29.666
lhand 11.0254 36.6711
lfingers 7.12502
lthumb 36.0982 62.9634
rfemur -35.7151 -5.25796 21.0857
rtibia 48.4269
rfoot -16.1741 3.98305
rtoes -6.39669
lfemur -28.1099 15.6886 -18.4192
ltibia 45.7846
lfoot -20.463 6.08092
ltoes -23.1105
3378
root -0.245092 17.091 0.984331 11.5899 -11.7724 0.039935
lowerback 5.29174 -1.38383 4.89983
upperback 5.8242 -1.79067 3.06138
thorax 3.01406 -0.79437 0.466813
lowerneck 17.0921 2.0432 1.56228
upperneck 0.409474 2.55452 -8.45517
head -2.47173 1.6203 -3.02146
rclavicle 2.38542e-014 -3.26007e-014
rhumerus -57.0359 13.3431 -82.3119
rradius 121.004
rwrist -3.26277
rhand 37.2816 1.86758
rfingers 7.12502
rthumb 60.1061 -11.8008
lclavicle 2.38542e-014 -3.26007e-014
lhumerus -63.2363 -18.0731 87.2515
lradius 119.634
lwrist 28.1253
lhand 11.9669 36.613
lfingers 7.12502
lthumb 36.9894 62.6802
rfemur -35.7039 -5.52864 21.1838
rtibia 48.7143
rfoot -16.2177 4.13422
rtoes -5.48198
lfemur -28.2033 15.501 -18.2824
ltibia 46.1717
lfoot -20.5344 6.0098
ltoes -22.9823
3379
root -0.240057 17.0743 0.950477 11.4845 -11.6429 -0.0252439
lowerback 5.64798 -1.43294 4.87615
upperback 6.27525 -1.85783 3.07391
thorax 3.28851 -0.82148 0.500571
lowerneck 17.0206 1.97312 1.57786
upperneck -0.259695 2.41948 -8.56777
head -2.67085 1.57361 -3.0565
rclavicle -1.82882e-014 -2.38542e-015
rhumerus -56.4806 13.3996 -82.089
rradius 120.906
rwrist -3.21048
rhand 37.5898 1.84616
rfingers 7.12502
rthumb 60.369 -11.5409
lclavicle -1.82882e-014 -2.38542e-015
lhumerus -62.3976 -16.3338 86.7899
lradius 119.719
lwrist 26.7547
lhand 12.6967 36.4827
lfingers 7.12502
lthumb 37.6793 62.3685
rfemur -35.822 -5.73845 21.3036
rtibia 48.9635
rfoot -16.2414 4.37658
rtoes -4.70903
lfemur -28.4472 15.3914 -18.1771
ltibia 46.6132
lfoot -20.5862 6.04226
ltoes -22.765
3380
root -0.236486 17.0583 0.91777 11.4814 -11.6552 -0.154523
lowerback 5.89757 -1.37223 4.96643
upperback 6.69581 -1.78168 3.04852
thorax 3.59199 -0.771362 0.425451
lowerneck 17.0045 1.87038 1.65446
upperneck -1.0485 2.24726 -8.63442
head -2.91666 1.51059 -3.0872
rclavicle -1.98785e-014 1.03368e-014
rhumerus -56.1335 13.2922 -81.96
rradius 120.831
rwrist -2.97443
rhand 37.7473 2.22681
rfingers 7.12502
rthumb 60.503 -11.0144
lclavicle -1.98785e-014 1.03368e-014
lhumerus -61.6806 -14.9444 86.4864
lradius 119.822
lwrist 25.5866
lhand 13.2526 36.4364
lfingers 7.12502
lthumb 38.2043 62.1797
rfemur -36.03 -5.81796 21.4873
rtibia 49.1836
rfoot -16.28 4.3704
rtoes -5.32943
lfemur -28.8138 15.4334 -18.0501
ltibia 47.1137
lfoot -20.5506 6.18868
ltoes -22.8344
